<svg width="25" height="25" viewBox="0 0 25 25" fill="none" xmlns="http://www.w3.org/2000/svg">
<path d="M13.0232 6.2112C12.5259 6.2112 12.0398 6.06093 11.6264 5.77941C11.2129 5.49788 10.8906 5.09773 10.7004 4.62957C10.5101 4.1614 10.4603 3.64625 10.5573 3.14924C10.6543 2.65224 10.8937 2.19572 11.2454 1.8374C11.597 1.47908 12.045 1.23507 12.5327 1.13621C13.0204 1.03735 13.5259 1.08809 13.9853 1.28201C14.4447 1.47593 14.8374 1.80432 15.1137 2.22565C15.3899 2.64699 15.5374 3.14235 15.5374 3.64909C15.5374 4.3286 15.2725 4.98028 14.801 5.46077C14.3295 5.94126 13.69 6.2112 13.0232 6.2112ZM13.0232 2.79505C12.8574 2.79505 12.6954 2.84514 12.5576 2.93898C12.4197 3.03282 12.3123 3.16621 12.2489 3.32226C12.1855 3.47832 12.1689 3.65004 12.2012 3.8157C12.2335 3.98137 12.3134 4.13354 12.4306 4.25298C12.5478 4.37242 12.6971 4.45376 12.8597 4.48672C13.0222 4.51967 13.1907 4.50276 13.3439 4.43812C13.497 4.37348 13.6279 4.26401 13.72 4.12357C13.8121 3.98312 13.8612 3.818 13.8612 3.64909C13.8612 3.42258 13.7729 3.20536 13.6158 3.04519C13.4586 2.88503 13.2454 2.79505 13.0232 2.79505Z" fill="#313131"/>
<path d="M15.5374 19.8758H10.509C10.2867 19.8758 10.0735 19.9658 9.91636 20.1259C9.75919 20.2861 9.6709 20.5033 9.6709 20.7298V21.5839C9.6709 22.4899 10.0241 23.3588 10.6528 23.9994C11.2814 24.6401 12.1341 25 13.0232 25C13.9122 25 14.7649 24.6401 15.3936 23.9994C16.0222 23.3588 16.3754 22.4899 16.3754 21.5839V20.7298C16.3754 20.5033 16.2871 20.2861 16.13 20.1259C15.9728 19.9658 15.7596 19.8758 15.5374 19.8758Z" fill="#313131"/>
<path d="M23.4571 19.9697C22.5866 19.5296 21.8545 18.85 21.3435 18.0078C20.8325 17.1656 20.5631 16.1944 20.5657 15.2042V12.1894C20.5657 10.1509 19.7711 8.19586 18.3565 6.75439C16.942 5.31292 15.0236 4.50311 13.0231 4.50311C11.0227 4.50311 9.10422 5.31292 7.68971 6.75439C6.2752 8.19586 5.48054 10.1509 5.48054 12.1894V15.2042C5.4832 16.1944 5.21379 17.1656 4.7028 18.0078C4.19181 18.85 3.45965 19.5296 2.58921 19.9697C2.42219 20.0569 2.28871 20.1987 2.21017 20.3724C2.13163 20.5461 2.11256 20.7416 2.15603 20.9276C2.1995 21.1137 2.30298 21.2795 2.4499 21.3985C2.59682 21.5174 2.77868 21.5827 2.96634 21.5839H23.0799C23.2676 21.5827 23.4494 21.5174 23.5964 21.3985C23.7433 21.2795 23.8468 21.1137 23.8902 20.9276C23.9337 20.7416 23.9146 20.5461 23.8361 20.3724C23.7575 20.1987 23.6241 20.0569 23.4571 19.9697Z" fill="black"/>
</svg>
