<svg width="25" height="25" viewBox="0 0 25 25" fill="none" xmlns="http://www.w3.org/2000/svg">
<path d="M12.5 10C18.7125 10 25 8.2825 25 5C25 1.7175 18.7125 0 12.5 0C6.2875 0 0 1.7175 0 5C0 8.2825 6.2875 10 12.5 10Z" fill="black"/>
<path d="M0 10C0 13.2825 6.2875 15 12.5 15C18.7125 15 25 13.2825 25 10V7.5C25 10.7825 18.7125 12.5 12.5 12.5C6.2875 12.5 0 10.7825 0 7.5V10Z" fill="black"/>
<path d="M0 15C0 18.2825 6.2875 20 12.5 20C18.7125 20 25 18.2825 25 15V12.5C25 15.7825 18.7125 17.5 12.5 17.5C6.2875 17.5 0 15.7825 0 12.5V15Z" fill="black"/>
<path d="M0 20C0 23.2825 6.2875 25 12.5 25C18.7125 25 25 23.2825 25 20V17.5C25 20.7825 18.7125 22.5 12.5 22.5C6.2875 22.5 0 20.7825 0 17.5V20Z" fill="black"/>
</svg>
