<svg width="20" height="20" viewBox="0 0 20 20" fill="none" xmlns="http://www.w3.org/2000/svg">
<path d="M10.2326 17.6744C14.8563 17.6744 18.6047 13.8037 18.6047 11.1628C18.6047 8.52188 14.8563 4.65118 10.2326 4.65118C5.60885 4.65118 1.86047 8.52467 1.86047 11.1628C1.86047 13.801 5.60885 17.6744 10.2326 17.6744Z" stroke="black" stroke-linejoin="round"/>
<path d="M10.2326 13.9535C10.9727 13.9535 11.6826 13.6595 12.2059 13.1362C12.7293 12.6128 13.0233 11.903 13.0233 11.1628C13.0233 10.4227 12.7293 9.71286 12.2059 9.18951C11.6826 8.66615 10.9727 8.37213 10.2326 8.37213C9.49245 8.37213 8.78263 8.66615 8.25927 9.18951C7.73591 9.71286 7.44189 10.4227 7.44189 11.1628C7.44189 11.903 7.73591 12.6128 8.25927 13.1362C8.78263 13.6595 9.49245 13.9535 10.2326 13.9535V13.9535Z" stroke="black" stroke-linejoin="round"/>
<path d="M10.2367 1.86047V4.65117M5.23907 3.84466L6.44559 5.52838L5.23907 3.84466ZM15.6395 4.05117L14.4326 5.73489L15.6395 4.05117Z" stroke="black" stroke-linecap="round"/>
</svg>
