<svg width="20" height="20" viewBox="0 0 20 20" fill="none" xmlns="http://www.w3.org/2000/svg">
<path d="M10 20C4.48333 20 0 15.5167 0 10C0 4.48333 4.48333 0 10 0C15.5167 0 20 4.48333 20 10C20 15.5167 15.5167 20 10 20Z" fill="url(#paint0_linear_89_124)"/>
<path d="M13.5666 13.225C12.9333 14.0167 12.1 14.4584 11.2333 14.4584C10.0916 14.4584 9.09164 13.7084 8.47498 12.575H11.9C12.4 12.575 12.8 12.175 12.8 11.675C12.8 11.175 12.4 10.775 11.9 10.775H7.90831C7.87498 10.525 7.84998 10.2667 7.84998 10.0084C7.84998 9.74169 7.87498 9.49169 7.90831 9.24169H11.9C12.4 9.24169 12.8 8.84169 12.8 8.34169C12.8 7.84169 12.4 7.4417 11.9 7.4417H8.47498C9.09164 6.30836 10.0916 5.55836 11.2333 5.55836C12.1 5.55836 12.925 5.99169 13.5666 6.79169C13.875 7.17503 14.4416 7.24169 14.8333 6.93336C15.225 6.62503 15.2833 6.05836 14.975 5.6667C13.9916 4.4417 12.6666 3.75836 11.2416 3.75836C9.14164 3.75836 7.33331 5.27503 6.51664 7.4417H4.74998C4.24998 7.4417 3.84998 7.84169 3.84998 8.34169C3.84998 8.84169 4.24998 9.24169 4.74998 9.24169H6.09164C6.06664 9.49169 6.04998 9.75003 6.04998 10.0084C6.04998 10.2667 6.06664 10.525 6.09164 10.775H4.74998C4.24998 10.775 3.84998 11.175 3.84998 11.675C3.84998 12.175 4.24998 12.575 4.74998 12.575H6.50831C7.32498 14.7417 9.13331 16.2584 11.2333 16.2584C12.6583 16.2584 13.9833 15.5834 14.9666 14.35C15.275 13.9667 15.2166 13.4 14.825 13.0834C14.4416 12.775 13.8833 12.8334 13.5666 13.225Z" fill="white"/>
<defs>
<linearGradient id="paint0_linear_89_124" x1="-1.49142" y1="21.4914" x2="17.1946" y2="2.80542" gradientUnits="userSpaceOnUse">
<stop stop-color="#F3AA0F"/>
<stop offset="1" stop-color="#FED46E"/>
</linearGradient>
</defs>
</svg>
