<svg width="25" height="25" viewBox="0 0 25 25" fill="none" xmlns="http://www.w3.org/2000/svg">
<path d="M11.4018 11.397L11.3929 11.4024L11.3841 11.4079C10.6986 11.8363 10.3281 12.5488 10.3281 13.2812V14.0625C10.3281 14.7467 10.6553 15.3638 11.1599 15.7638C10.4076 16.2107 9.9375 17.032 9.9375 17.9688C9.9375 19.3999 11.0688 20.5312 12.5 20.5312C13.8689 20.5312 15.0625 19.4181 15.0625 17.9688C15.0625 17.0236 14.555 16.2215 13.8223 15.7778C14.2107 15.4762 14.4968 15.0471 14.6137 14.5572L16.3935 13.4522C17.7532 12.6409 18.5781 11.1983 18.5781 9.66797C18.5781 7.19481 16.6 5.25 14.0723 5.25H11.5771C9.15609 5.25 7.20312 7.21984 7.20312 9.66797C7.20312 10.855 8.18795 11.8398 9.375 11.8398C10.5621 11.8398 11.5469 10.855 11.5469 9.66797C11.5469 9.63019 11.56 9.61313 11.5649 9.60808C11.5677 9.60524 11.5709 9.60279 11.5762 9.60059C11.5808 9.59862 11.5943 9.59375 11.6211 9.59375H14.1162C14.1235 9.59375 14.1367 9.5953 14.1546 9.60275C14.1731 9.6104 14.1918 9.62241 14.2075 9.63731C14.2418 9.66981 14.2344 9.68542 14.2344 9.66797C14.2344 9.69444 14.2285 9.70423 14.2278 9.70536C14.227 9.70681 14.2255 9.70901 14.2224 9.7121C14.2192 9.71519 14.2128 9.72077 14.2011 9.72746L14.193 9.7321L14.185 9.73688L11.4018 11.397ZM1 12.5C1 6.14799 6.14799 1 12.5 1C18.852 1 24 6.14799 24 12.5C24 18.852 18.852 24 12.5 24C6.14799 24 1 18.852 1 12.5Z" fill="#ECECEC" stroke="#ECECEC" stroke-width="2"/>
</svg>
