<svg width="60" height="39" viewBox="0 0 60 39" fill="none" xmlns="http://www.w3.org/2000/svg">
<circle cx="30" cy="12" r="10.5" stroke="#28DA84" stroke-width="3" stroke-dasharray="2 2"/>
<path d="M25.0019 11.5192C24.9761 11.2117 25.21 10.9473 25.5079 10.9473H26.4775C26.758 10.9473 26.9853 11.1829 26.9853 11.4736V16.4735C26.9853 16.7642 26.758 16.9998 26.4775 16.9998H25.9274C25.664 16.9998 25.4443 16.7911 25.4215 16.5191L25.0019 11.5192Z" stroke="#28DA84" stroke-linecap="round" stroke-linejoin="round"/>
<path d="M28.5089 11.309C28.5089 11.0891 28.6408 10.8923 28.8327 10.7985C29.2513 10.594 29.9646 10.1826 30.2864 9.62643C30.701 8.9097 30.7793 7.61472 30.792 7.3181C30.7938 7.27657 30.7926 7.235 30.7981 7.19383C30.8669 6.68012 31.8237 7.28024 32.1908 7.91476C32.39 8.25912 32.4156 8.71157 32.3946 9.0648C32.3722 9.44274 32.2653 9.80785 32.1604 10.1706L31.9369 10.9433H34.6937C35.0304 10.9433 35.2739 11.2768 35.1824 11.6126L33.8188 16.6167C33.757 16.8434 33.5573 16.9999 33.33 16.9999H29.0168C28.7363 16.9999 28.5089 16.7643 28.5089 16.4736V11.309Z" stroke="#28DA84" stroke-linecap="round" stroke-linejoin="round"/>
<path d="M8.112 25.956V31.644H9.72V25.956H8.112ZM2.304 32.088V33.3H8.136V33.96H2.328V36.24H3.888V35.076H9.72V32.088H2.304ZM2.328 35.772V36.996H9.996V35.772H2.328ZM3.18 27.012V27.444C3.18 28.716 2.376 30.012 0.528 30.528L1.26 31.776C3.432 31.164 4.476 29.412 4.476 27.444V27.012H3.18ZM3.528 27.012V27.444C3.528 29.304 4.548 30.972 6.684 31.548L7.416 30.324C5.604 29.832 4.812 28.62 4.812 27.444V27.012H3.528ZM0.948 26.46V27.72H6.996V26.46H0.948ZM11.5191 31.44V32.712H21.5751V31.44H11.5191ZM15.8751 32.244V34.584H17.4831V32.244H15.8751ZM12.7551 26.424V30.552H20.3031V26.424H12.7551ZM18.7311 27.672V29.304H14.3151V27.672H18.7311ZM12.6831 35.604V36.876H20.4711V35.604H12.6831ZM12.6831 33.648V36.024H14.2671V33.648H12.6831ZM25.0541 27.708V28.956C25.0541 30.78 24.1541 32.856 22.3181 33.72L23.2181 34.98C25.2581 34.02 26.3141 31.464 26.3141 28.956V27.708H25.0541ZM25.3901 27.708V28.956C25.3901 31.32 26.4221 33.756 28.4621 34.704L29.3381 33.444C27.5141 32.604 26.6501 30.636 26.6501 28.956V27.708H25.3901ZM22.7501 27.024V28.332H28.8461V27.024H22.7501ZM29.6621 25.956V37.068H31.2701V25.956H29.6621ZM30.9101 30.192V31.512H32.8781V30.192H30.9101ZM38.3185 29.028V29.316C38.3185 31.02 37.7545 32.832 36.1705 33.756L37.0705 34.956C38.8465 33.936 39.5185 31.62 39.5185 29.316V29.028H38.3185ZM38.6305 29.028V29.316C38.6305 31.584 39.3145 33.756 41.1145 34.692L41.9785 33.516C40.4065 32.676 39.8305 30.984 39.8305 29.316V29.028H38.6305ZM36.5425 27.828V29.112H41.5945V27.828H36.5425ZM38.3185 26.328V28.86H39.8305V26.328H38.3185ZM44.4865 25.956V37.068H45.9985V25.956H44.4865ZM43.1545 30.216V31.512H45.0025V30.216H43.1545ZM42.0985 26.124V36.564H43.5865V26.124H42.0985ZM47.7856 31.02V32.316H48.5536C50.2096 32.316 51.2896 32.28 52.5616 32.064L52.4176 30.792C51.1936 30.996 50.1616 31.02 48.5536 31.02H47.7856ZM47.7856 26.7V31.728H49.3216V27.972H52.1656V26.7H47.7856ZM48.8656 28.872V30.072H52.0456V28.872H48.8656ZM55.3696 25.956V32.736H56.8816V25.956H55.3696ZM54.0376 28.68V29.952H55.8016V28.68H54.0376ZM52.9936 26.16V32.664H54.4816V26.16H52.9936ZM49.2496 33.216V34.488H55.2976V37.068H56.8816V33.216H49.2496Z" fill="#28DA84"/>
</svg>
