<svg width="25" height="25" viewBox="0 0 25 25" fill="none" xmlns="http://www.w3.org/2000/svg">
<path d="M23.6898 0.61788L24.3755 1.29612C25.3203 2.23186 25.1773 3.89067 24.0536 5.00114L9.91405 18.9878L5.33297 20.6455C4.75772 20.8547 4.19758 20.5834 4.08369 20.042C4.0452 19.8455 4.06332 19.6424 4.13598 19.4557L5.8443 14.885L19.9443 0.936308C21.0681 -0.174165 22.745 -0.31786 23.6898 0.61788ZM9.29696 2.00885C9.44957 2.00885 9.60069 2.03858 9.74168 2.09635C9.88268 2.15412 10.0108 2.2388 10.1187 2.34554C10.2266 2.45229 10.3122 2.57902 10.3706 2.71849C10.429 2.85796 10.4591 3.00744 10.4591 3.1584C10.4591 3.30937 10.429 3.45885 10.3706 3.59832C10.3122 3.73779 10.2266 3.86452 10.1187 3.97126C10.0108 4.07801 9.88268 4.16268 9.74168 4.22046C9.60069 4.27823 9.44957 4.30796 9.29696 4.30796H4.64848C4.03205 4.30796 3.44087 4.55019 3.00499 4.98136C2.56911 5.41252 2.32424 5.99731 2.32424 6.60708V20.4018C2.32424 21.0115 2.56911 21.5963 3.00499 22.0275C3.44087 22.4587 4.03205 22.7009 4.64848 22.7009H18.5939C19.2103 22.7009 19.8015 22.4587 20.2374 22.0275C20.6733 21.5963 20.9182 21.0115 20.9182 20.4018V15.8035C20.9182 15.4987 21.0406 15.2063 21.2585 14.9907C21.4765 14.7751 21.7721 14.654 22.0803 14.654C22.3885 14.654 22.6841 14.7751 22.902 14.9907C23.12 15.2063 23.2424 15.4987 23.2424 15.8035V20.4018C23.2424 21.6213 22.7527 22.7909 21.8809 23.6532C21.0091 24.5155 19.8268 25 18.5939 25H4.64848C3.41563 25 2.23327 24.5155 1.36151 23.6532C0.489749 22.7909 0 21.6213 0 20.4018V6.60708C0 5.38755 0.489749 4.21797 1.36151 3.35564C2.23327 2.4933 3.41563 2.00885 4.64848 2.00885H9.29696Z" fill="white"/>
</svg>
