<svg width="48" height="48" viewBox="0 0 48 48" fill="none" xmlns="http://www.w3.org/2000/svg">
<path d="M6.96215 41.5624C8.0898 41.9795 9.30692 42.2069 10.5763 42.2069C16.4174 42.2069 21.1525 37.3901 21.1525 31.4483C21.1525 25.5065 16.4174 20.6897 10.5763 20.6897C4.73516 20.6897 0 25.5065 0 31.4483C0 34.1859 1.00511 36.6846 2.66042 38.5835L0.813559 44.6897L6.96215 41.5624Z" fill="#FCD17A"/>
<path d="M3.07429 8.7374C2.6643 9.88449 2.44068 11.1226 2.44068 12.4138C2.44068 18.3557 7.17584 23.1725 13.0169 23.1725C18.8581 23.1725 23.5932 18.3557 23.5932 12.4138C23.5932 6.47201 18.8581 1.65521 13.0169 1.65521C10.3258 1.65521 7.86943 2.67766 6.00272 4.3615L0 2.4828L3.07429 8.7374Z" fill="#F2C34E"/>
<path d="M43.6702 31.4102L38.2373 30.6207H28.4746L23.0417 31.4102C21.5441 31.6278 20.1631 32.2209 18.9963 33.0966L15.8113 48H48V33.3194C46.776 32.3214 45.2914 31.6458 43.6702 31.4102Z" fill="#41A08E"/>
<path d="M29.9295 19.3368C29.6003 18.3323 28.4414 17.8961 27.5488 18.4409L25.2203 19.8621V12C25.2203 11.3144 24.6739 10.7586 24 10.7586C23.326 10.7586 22.7796 11.3144 22.7796 12V8.68968C22.7796 8.00409 22.2332 7.4483 21.5593 7.4483C20.8853 7.4483 20.3389 8.00409 20.3389 8.68968V11.1724C20.3389 10.4868 19.7926 9.93106 19.1186 9.93106C18.4446 9.93106 17.8983 10.4868 17.8983 11.1724V13.6552C17.8983 12.9696 17.3519 12.4138 16.6779 12.4138C16.0039 12.4138 15.4576 12.9696 15.4576 13.6552V20.3561C15.4576 21.1077 15.7091 21.837 16.1707 22.424L18.7118 25.6552L12.1555 42.0255C11.0128 44.8785 13.0762 48 16.1046 48H16.1046C18.1033 48 19.8339 46.5879 20.2674 44.6032L24.4067 25.6552L30.1016 19.8621L29.9295 19.3368Z" fill="#DFDFDF"/>
<path d="M41.9717 13.4042L41.4916 13.2414V7.4483H25.2204V13.2414L24.7403 13.4042C23.5694 13.8012 22.7797 14.9158 22.7797 16.1712V16.1712C22.7797 16.9448 23.0818 17.6866 23.6195 18.2336L24.4068 19.0345V19.0345C24.4068 22.0585 26.1444 24.8034 28.8507 26.0548H28.8507C31.7133 27.3784 34.9987 27.3784 37.8613 26.0548H37.8613C40.5676 24.8034 42.3051 22.0585 42.3051 19.0345V19.0345L43.0925 18.2336C43.6302 17.6866 43.9323 16.9448 43.9323 16.1712V16.1712C43.9323 14.9158 43.1425 13.8012 41.9717 13.4042Z" fill="#DFDFDF"/>
<path d="M42.0268 0.646097C40.071 1.30926 37.988 1.48884 35.9504 1.16996L31.9895 0.550087C29.8083 0.208729 27.6107 1.05454 26.1979 2.77915L26.1978 2.77916C25.0576 4.17106 24.5505 5.98928 24.8024 7.78292L25.2203 10.7586L25.2203 10.7586C27.8187 8.64411 31.1534 7.70127 34.4517 8.14863L38.9217 8.75489C40.5087 8.97015 42.0864 8.29661 43.0471 6.99362V6.99361C43.6216 6.21435 43.9322 5.26654 43.9322 4.29246V0L42.0268 0.646097Z" fill="#EAB84B"/>
<path d="M34.0409 19.4271L33.38 19.203C32.8203 19.0132 32.3699 18.5864 32.1441 18.032C31.9184 17.4775 31.9402 16.8517 32.204 16.3149L33.8057 13.0563L34.5333 13.4265L32.9317 16.6851C32.7734 17.0071 32.7603 17.3826 32.8957 17.7153C33.0312 18.0479 33.3015 18.304 33.6373 18.4179L34.2981 18.6419L34.0409 19.4271V19.4271Z" fill="#8C8C8C"/>
<path d="M38.8689 11.216L35.6147 12.8714L35.9786 13.6116L39.2328 11.9562L38.8689 11.216Z" fill="#8C8C8C"/>
<path d="M38.2373 14.4828H35.7966V15.3104H38.2373V14.4828Z" fill="#8C8C8C"/>
<path d="M30.1017 14.4828H27.661V15.3104H30.1017V14.4828Z" fill="#8C8C8C"/>
<path d="M33.356 24C34.2546 24 34.9831 23.259 34.9831 22.3449C34.9831 21.4307 34.2546 20.6897 33.356 20.6897C32.4574 20.6897 31.7289 21.4307 31.7289 22.3449C31.7289 23.259 32.4574 24 33.356 24Z" fill="#8C8C8C"/>
<path d="M28.4746 25.6552V30.6207L33.356 37.2414L38.2373 30.6207V25.6552H28.4746Z" fill="#DFDFDF"/>
<path d="M7.32203 13.6552H4.88135V14.4828H7.32203V13.6552Z" fill="#F4F4F4"/>
<path d="M11.3898 13.6552H8.94916V14.4828H11.3898V13.6552Z" fill="#F4F4F4"/>
<path d="M15.4576 13.6552H13.017V14.4828H15.4576V13.6552Z" fill="#F4F4F4"/>
<path d="M4.88135 33.5172H2.44067V34.3447H4.88135V33.5172Z" fill="#F4F4F4"/>
<path d="M8.94916 33.5172H6.50848V34.3447H8.94916V33.5172Z" fill="#F4F4F4"/>
<path d="M13.0169 33.5172H10.5762V34.3447H13.0169V33.5172Z" fill="#F4F4F4"/>
<path d="M45.5594 40.9655H37.4238V41.793H45.5594V40.9655Z" fill="#F4F4F4"/>
<path d="M27.8429 11.2161L27.4791 11.9563L30.7333 13.6115L31.0971 12.8713L27.8429 11.2161Z" fill="#8C8C8C"/>
<path d="M33.356 27.4656C31.9264 27.4656 30.4967 27.1869 29.1362 26.6293L29.4402 25.8616C31.9654 26.8964 34.7466 26.8964 37.2718 25.8616L37.5758 26.6293C36.2152 27.1869 34.7856 27.4656 33.356 27.4656Z" fill="#CECECE"/>
<path d="M20.7457 11.5862H19.9322V19.8621H20.7457V11.5862Z" fill="#CECECE"/>
<path d="M18.3051 13.2414H17.4915V19.8621H18.3051V13.2414Z" fill="#CECECE"/>
<path d="M23.1865 12.4138H22.3729V19.862H23.1865V12.4138Z" fill="#CECECE"/>
<path d="M25.7144 24.0643C24.644 22.6825 24.0393 20.9642 24.0019 19.2077L23.3318 18.5262C22.7135 17.8971 22.3729 17.0608 22.3729 16.1712C22.3729 14.7354 23.2726 13.4657 24.6116 13.0116L24.8136 12.9431V10.7586H25.6272V13.2414C25.6272 13.4195 25.5151 13.5776 25.349 13.6339L24.8689 13.7967C23.8626 14.1379 23.1865 15.0922 23.1865 16.1712C23.1865 16.8397 23.4424 17.4682 23.9071 17.9409L24.6945 18.7419C24.7708 18.8195 24.8136 18.9247 24.8136 19.0345C24.8136 20.6658 25.3605 22.2702 26.3534 23.5521L25.7144 24.0643Z" fill="#CECECE"/>
<path d="M16.1047 48C18.1034 48 19.8339 46.5879 20.2675 44.6032L23.1531 31.394L23.0417 31.4102C19.4397 31.9337 16.5078 34.6235 15.6253 38.2143L13.4514 47.0599C14.1681 47.6424 15.0809 48 16.1047 48H16.1047Z" fill="#DFDFDF"/>
</svg>
