<svg width="17" height="22" viewBox="0 0 17 22" fill="none" xmlns="http://www.w3.org/2000/svg">
<path d="M8.498 8.13849C8.14644 8.13849 7.84459 8.0142 7.59246 7.76562C7.34388 7.51349 7.21959 7.21165 7.21959 6.86009C7.21959 6.51207 7.34388 6.21378 7.59246 5.9652C7.84459 5.71662 8.14644 5.59233 8.498 5.59233C8.83891 5.59233 9.13721 5.71662 9.39289 5.9652C9.64857 6.21378 9.77641 6.51207 9.77641 6.86009C9.77641 7.09446 9.71604 7.3093 9.5953 7.50462C9.47812 7.69638 9.32364 7.85085 9.13188 7.96804C8.94012 8.08168 8.72883 8.13849 8.498 8.13849ZM8.498 13.1385C8.14644 13.1385 7.84459 13.0142 7.59246 12.7656C7.34388 12.5135 7.21959 12.2116 7.21959 11.8601C7.21959 11.5121 7.34388 11.2138 7.59246 10.9652C7.84459 10.7166 8.14644 10.5923 8.498 10.5923C8.83891 10.5923 9.13721 10.7166 9.39289 10.9652C9.64857 11.2138 9.77641 11.5121 9.77641 11.8601C9.77641 12.0945 9.71604 12.3093 9.5953 12.5046C9.47812 12.6964 9.32364 12.8509 9.13188 12.968C8.94012 13.0817 8.72883 13.1385 8.498 13.1385ZM8.498 18.1385C8.14644 18.1385 7.84459 18.0142 7.59246 17.7656C7.34388 17.5135 7.21959 17.2116 7.21959 16.8601C7.21959 16.5121 7.34388 16.2138 7.59246 15.9652C7.84459 15.7166 8.14644 15.5923 8.498 15.5923C8.83891 15.5923 9.13721 15.7166 9.39289 15.9652C9.64857 16.2138 9.77641 16.5121 9.77641 16.8601C9.77641 17.0945 9.71604 17.3093 9.5953 17.5046C9.47812 17.6964 9.32364 17.8509 9.13188 17.968C8.94012 18.0817 8.72883 18.1385 8.498 18.1385Z" fill="#767676"/>
</svg>
