<svg width="3" height="12" viewBox="0 0 3 12" fill="none" xmlns="http://www.w3.org/2000/svg">
<path d="M1.498 3.13849C1.14644 3.13849 0.844593 3.0142 0.592463 2.76562C0.343883 2.51349 0.219593 2.21165 0.219593 1.86009C0.219593 1.51207 0.343883 1.21378 0.592463 0.965199C0.844593 0.716619 1.14644 0.592329 1.498 0.592329C1.83891 0.592329 2.13721 0.716619 2.39289 0.965199C2.64857 1.21378 2.77641 1.51207 2.77641 1.86009C2.77641 2.09446 2.71604 2.3093 2.5953 2.50462C2.47812 2.69638 2.32364 2.85085 2.13188 2.96804C1.94012 3.08168 1.72883 3.13849 1.498 3.13849ZM1.498 7.13849C1.14644 7.13849 0.844593 7.0142 0.592463 6.76562C0.343883 6.51349 0.219593 6.21165 0.219593 5.86009C0.219593 5.51207 0.343883 5.21378 0.592463 4.9652C0.844593 4.71662 1.14644 4.59233 1.498 4.59233C1.83891 4.59233 2.13721 4.71662 2.39289 4.9652C2.64857 5.21378 2.77641 5.51207 2.77641 5.86009C2.77641 6.09446 2.71604 6.3093 2.5953 6.50462C2.47812 6.69638 2.32364 6.85085 2.13188 6.96804C1.94012 7.08168 1.72883 7.13849 1.498 7.13849ZM1.498 11.1385C1.14644 11.1385 0.844593 11.0142 0.592463 10.7656C0.343883 10.5135 0.219593 10.2116 0.219593 9.86009C0.219593 9.51207 0.343883 9.21378 0.592463 8.9652C0.844593 8.71662 1.14644 8.59233 1.498 8.59233C1.83891 8.59233 2.13721 8.71662 2.39289 8.9652C2.64857 9.21378 2.77641 9.51207 2.77641 9.86009C2.77641 10.0945 2.71604 10.3093 2.5953 10.5046C2.47812 10.6964 2.32364 10.8509 2.13188 10.968C1.94012 11.0817 1.72883 11.1385 1.498 11.1385Z" fill="#919191"/>
</svg>
 