<svg width="25" height="25" viewBox="0 0 25 25" fill="none" xmlns="http://www.w3.org/2000/svg">
<path d="M24 12.5C24 13.319 23.7578 14.0196 23.416 14.4909C23.0734 14.9632 22.6859 15.1459 22.3556 15.1459C22.3368 15.1459 22.3207 15.1454 22.3071 15.1446C22.2961 15.1058 22.2826 15.0451 22.2714 14.9548C22.2414 14.7125 22.2421 14.392 22.2571 13.9534C22.2605 13.8549 22.2646 13.7508 22.2688 13.642C22.2824 13.2946 22.2978 12.9008 22.2978 12.5C22.2978 12.0992 22.2824 11.7054 22.2688 11.358C22.2646 11.2493 22.2605 11.1451 22.2571 11.0467C22.2421 10.608 22.2414 10.2875 22.2714 10.0452C22.2826 9.95494 22.2961 9.89425 22.3071 9.85543C22.3207 9.85467 22.3368 9.85419 22.3556 9.85419C22.6859 9.85419 23.0734 10.0368 23.416 10.5092C23.7578 10.9804 24 11.681 24 12.5ZM22.2437 15.1361C22.2438 15.1361 22.2451 15.1364 22.2475 15.1373C22.2448 15.1366 22.2436 15.1362 22.2437 15.1361ZM22.2437 9.86391C22.2436 9.86385 22.2448 9.8634 22.2475 9.86272C22.2451 9.86362 22.2438 9.86397 22.2437 9.86391Z" stroke="#ECECEC" stroke-width="2"/>
<path d="M21.8854 2.60419C21.7771 2.60419 21.666 2.62168 21.5549 2.66168L5.1294 8.45095H0.455946C0.205176 8.45095 0 8.63593 0 8.8659V16.34C0 16.5699 0.205176 16.7549 0.455946 16.7549H3.35405C3.24862 17.0449 3.19162 17.3523 3.19162 17.6648C3.19162 19.3121 4.72474 20.6519 6.61122 20.6519C8.18993 20.6519 9.52073 19.712 9.91398 18.4422L21.5577 22.5467C21.6688 22.5842 21.78 22.6042 21.8883 22.6042C22.3699 22.6042 22.8002 22.2492 22.8002 21.7743V3.43408C22.7973 2.95914 22.3699 2.60419 21.8854 2.60419ZM6.61122 18.8596C5.85606 18.8596 5.24338 18.3247 5.24338 17.6648C5.24338 17.3848 5.35452 17.1174 5.55684 16.9049L7.97621 17.7573C7.91922 18.3722 7.32934 18.8596 6.61122 18.8596ZM20.7456 20.3195L5.8931 15.0851L5.5255 14.9551H2.05176V10.2507H5.5255L5.8931 10.1207L20.7456 4.8864V20.3195Z" fill="#ECECEC"/>
<ellipse cx="3.08823" cy="5.60419" rx="3.08823" ry="3" fill="#FF0000"/>
<line x1="14.7408" y1="6.25" x2="14.7408" y2="19.2708" stroke="#ECECEC" stroke-width="2"/>
</svg>
