<svg width="29" height="29" viewBox="0 0 29 29" fill="none" xmlns="http://www.w3.org/2000/svg">
<circle cx="14.5" cy="14.5" r="14.5" fill="#33404D"/>
<path fill-rule="evenodd" clip-rule="evenodd" d="M17.9091 18.4502C18.4458 17.8171 18.8415 17.0683 19.0971 16.2029C19.3518 15.3376 19.48 14.3348 19.48 13.1929C19.48 11.7574 19.2546 10.5138 18.8046 9.46122C18.3546 8.40868 17.7123 7.61325 16.8771 7.07339C16.0419 6.5343 15.0839 6.26397 14.0022 6.26397C13.2318 6.26397 12.5202 6.41389 11.8667 6.71218C11.2131 7.01124 10.6508 7.44624 10.1789 8.0164C9.7078 8.58734 9.33542 9.31596 9.06255 10.2038C8.79043 11.0909 8.65399 12.0875 8.65399 13.1929C8.65399 15.4495 9.16431 17.1864 10.1857 18.4036C11.2071 19.6208 12.4961 20.229 14.0542 20.229C14.6941 20.229 15.3522 20.0908 16.0269 19.8142C15.6206 19.5027 15.1118 19.1905 14.5019 18.8782C13.8914 18.5659 13.4738 18.3251 13.2491 18.1558C13.0237 17.9864 12.9114 17.7456 12.9114 17.4334C12.9114 17.1662 13.02 16.93 13.2363 16.7249C13.4526 16.5199 13.6901 16.4173 13.9502 16.4173C14.7379 16.4173 16.057 17.0947 17.9091 18.4502ZM20.9333 20.6174C21.4956 21.0097 22.1107 21.3911 22.7771 21.7608C23.4434 22.1306 23.8844 22.425 24.1008 22.6441C24.3171 22.8623 24.4256 23.1723 24.4256 23.5731C24.4256 23.8589 24.2975 24.144 24.0427 24.4291C23.7872 24.715 23.4774 24.8571 23.114 24.8571C22.8201 24.8571 22.4628 24.7592 22.0437 24.5635C21.6238 24.367 21.1301 24.0819 20.564 23.7075C19.9971 23.3323 19.376 22.8957 18.7006 22.3963C17.4463 23.0557 15.9055 23.3859 14.0798 23.3859C12.6001 23.3859 11.2742 23.1427 10.1013 22.6573C8.92913 22.171 7.94467 21.4711 7.14791 20.5568C6.3519 19.6426 5.75263 18.5574 5.35011 17.2998C4.94833 16.0422 4.74707 14.6735 4.74707 13.1929C4.74707 11.6859 4.95663 10.304 5.37649 9.04642C5.79635 7.78958 6.40391 6.71917 7.19992 5.83596C7.99668 4.95354 8.96531 4.27773 10.1081 3.81011C11.2501 3.34171 12.5481 3.10712 14.0022 3.10712C15.9748 3.10712 17.6686 3.51959 19.0835 4.34454C20.4984 5.16948 21.5695 6.34243 22.2962 7.8626C23.0236 9.38355 23.3869 11.1686 23.3869 13.2201C23.3869 16.3319 22.569 18.7982 20.9333 20.6174Z" fill="#45FF4C"/>
<path opacity="0.203766" fill-rule="evenodd" clip-rule="evenodd" d="M23.3488 23.118C23.3021 23.2065 23.2441 23.2966 23.1611 23.3898C22.9765 23.5957 22.7692 23.692 22.5099 23.692C22.2709 23.692 21.9634 23.605 21.5955 23.4326C21.1937 23.2454 20.7121 22.9673 20.1625 22.6037C19.604 22.234 18.9829 21.7974 18.3165 21.3042L18.1296 21.1659L17.9253 21.2739C16.7298 21.9023 15.2327 22.2216 13.4756 22.2216C12.0525 22.2216 10.7612 21.9854 9.63731 21.5201C8.52471 21.0595 7.5787 20.386 6.8249 19.5207C6.06734 18.6515 5.48842 17.6012 5.10399 16.4011C4.75197 15.302 4.56653 14.0925 4.53337 12.81C4.5296 12.939 4.51904 13.0633 4.51904 13.1938C4.51904 14.6246 4.71578 15.9661 5.10399 17.1779C5.48842 18.378 6.06734 19.4282 6.8249 20.2975C7.5787 21.1628 8.52471 21.8363 9.63731 22.2969C10.7612 22.7622 12.0525 22.9983 13.4756 22.9983C15.2327 22.9983 16.7298 22.6791 17.9253 22.0507L18.1296 21.9427L18.3165 22.081C18.9829 22.5742 19.604 23.0108 20.1625 23.3805C20.7121 23.7441 21.1937 24.0222 21.5955 24.2094C21.9634 24.3818 22.2709 24.4688 22.5099 24.4688C22.7692 24.4688 22.9765 24.3725 23.1611 24.1666C23.3488 23.9561 23.4438 23.7565 23.4438 23.5739C23.4438 23.3867 23.4054 23.243 23.3488 23.118ZM20.1761 20.2004C21.6513 18.4759 22.4058 16.1323 22.4058 13.2202C22.4058 13.1068 22.393 13.0019 22.3908 12.89C22.3139 15.6756 21.5345 17.9283 20.0525 19.5766L19.754 19.9091L20.1181 20.1623C20.1362 20.1755 20.1573 20.1879 20.1761 20.2004Z" fill="#33404D"/>
</svg>
