<svg width="22" height="20" viewBox="0 0 22 20" fill="none" xmlns="http://www.w3.org/2000/svg">
<rect width="22" height="20" fill="#0D0D0D" fill-opacity="0.8"/>
<path fill-rule="evenodd" clip-rule="evenodd" d="M13.7623 13.3321C14.1937 12.8232 14.5117 12.2214 14.7171 11.5259C14.9219 10.8303 15.0249 10.0243 15.0249 9.10651C15.0249 7.95272 14.8438 6.95314 14.482 6.10715C14.1203 5.26116 13.6041 4.62183 12.9328 4.18791C12.2615 3.75462 11.4915 3.53734 10.6221 3.53734C10.0029 3.53734 9.43093 3.65784 8.90564 3.89759C8.38036 4.13796 7.92838 4.4876 7.54911 4.94587C7.17044 5.40476 6.87114 5.9904 6.65182 6.70403C6.4331 7.41703 6.32344 8.21807 6.32344 9.10651C6.32344 10.9202 6.73361 12.3163 7.55456 13.2946C8.37551 14.273 9.41154 14.7618 10.6639 14.7618C11.1783 14.7618 11.7072 14.6507 12.2494 14.4284C11.9229 14.1781 11.5139 13.9271 11.0238 13.6761C10.533 13.4251 10.1974 13.2316 10.0168 13.0955C9.83565 12.9594 9.74538 12.7658 9.74538 12.5148C9.74538 12.3 9.83262 12.1102 10.0065 11.9454C10.1804 11.7806 10.3712 11.6982 10.5803 11.6982C11.2134 11.6982 12.2737 12.2426 13.7623 13.3321ZM16.193 15.074C16.645 15.3893 17.1394 15.6959 17.675 15.9931C18.2106 16.2902 18.565 16.5269 18.7389 16.7029C18.9128 16.8784 19 17.1275 19 17.4497C19 17.6794 18.897 17.9085 18.6922 18.1377C18.4868 18.3674 18.2378 18.4817 17.9458 18.4817C17.7095 18.4817 17.4223 18.403 17.0855 18.2457C16.748 18.0877 16.3511 17.8586 15.8961 17.5577C15.4405 17.2561 14.9413 16.9052 14.3984 16.5038C13.3903 17.0338 12.1519 17.2992 10.6845 17.2992C9.49515 17.2992 8.42943 17.1038 7.4867 16.7135C6.54458 16.3227 5.75332 15.7602 5.11292 15.0253C4.47312 14.2905 3.99145 13.4182 3.66792 12.4074C3.34499 11.3966 3.18323 10.2965 3.18323 9.10651C3.18323 7.89528 3.35166 6.78457 3.68913 5.77375C4.02659 4.76356 4.51492 3.90321 5.15472 3.19333C5.79512 2.48407 6.57366 1.94089 7.49216 1.56503C8.41004 1.18855 9.45335 1 10.6221 1C12.2076 1 13.569 1.33153 14.7062 1.99458C15.8434 2.65764 16.7044 3.6004 17.2884 4.82225C17.8731 6.04472 18.1651 7.47947 18.1651 9.12836C18.1651 11.6295 17.5077 13.6118 16.193 15.074Z" fill="#00C6FF"/>
<path d="M4.06287 6.07894C4.35671 5.19674 4.78506 4.44066 5.33519 3.83129C5.87986 3.22755 6.5548 2.75742 7.34243 2.43463" stroke="#00C6FF" stroke-linecap="round" stroke-linejoin="round" stroke-dasharray="1 2 6 2 3 1 2 6"/>
<path opacity="0.203766" fill-rule="evenodd" clip-rule="evenodd" d="M18.1346 17.0838C18.097 17.155 18.0504 17.2274 17.9837 17.3023C17.8353 17.4678 17.6687 17.5452 17.4602 17.5452C17.2682 17.5452 17.021 17.4753 16.7253 17.3367C16.4024 17.1862 16.0152 16.9627 15.5736 16.6705C15.1246 16.3733 14.6254 16.0224 14.0898 15.626L13.9395 15.5148L13.7754 15.6016C12.8144 16.1067 11.6112 16.3633 10.1989 16.3633C9.05504 16.3633 8.01719 16.1735 7.11384 15.7995C6.21958 15.4293 5.45922 14.888 4.85335 14.1925C4.24445 13.4938 3.77915 12.6497 3.47015 11.6851C3.18721 10.8016 3.03817 9.82953 3.01151 8.79874C3.00848 8.90238 3 9.00227 3 9.10716C3 10.2572 3.15813 11.3355 3.47015 12.3094C3.77915 13.2741 4.24445 14.1182 4.85335 14.8168C5.45922 15.5123 6.21958 16.0536 7.11384 16.4239C8.01719 16.7979 9.05504 16.9877 10.1989 16.9877C11.6112 16.9877 12.8144 16.7311 13.7754 16.226L13.9395 16.1392L14.0898 16.2503C14.6254 16.6468 15.1246 16.9977 15.5736 17.2948C16.0152 17.587 16.4024 17.8106 16.7253 17.961C17.021 18.0996 17.2682 18.1695 17.4602 18.1695C17.6687 18.1695 17.8353 18.0921 17.9837 17.9267C18.1346 17.7575 18.2109 17.597 18.2109 17.4503C18.2109 17.2998 18.18 17.1843 18.1346 17.0838ZM15.5845 14.7388C16.7702 13.3527 17.3766 11.4691 17.3766 9.12839C17.3766 9.03724 17.3663 8.95295 17.3645 8.86304C17.3027 11.1019 16.6762 12.9126 15.4851 14.2374L15.2452 14.5046L15.5378 14.7082C15.5524 14.7188 15.5693 14.7288 15.5845 14.7388Z" fill="#00C6FF"/>
</svg>
