<svg width="25" height="25" viewBox="0 0 25 25" fill="none" xmlns="http://www.w3.org/2000/svg">
<circle cx="12.5" cy="12.5" r="12.5" fill="#0D0D0D" fill-opacity="0.8"/>
<path fill-rule="evenodd" clip-rule="evenodd" d="M15.4388 15.9053C15.9015 15.3596 16.2426 14.714 16.4629 13.968C16.6826 13.2221 16.793 12.3575 16.793 11.3732C16.793 10.1357 16.5987 9.06357 16.2108 8.15621C15.8228 7.24884 15.2692 6.56313 14.5492 6.09772C13.8292 5.63299 13.0033 5.39996 12.0708 5.39996C11.4066 5.39996 10.7932 5.5292 10.2298 5.78634C9.66641 6.04415 9.18164 6.41915 8.77485 6.91067C8.36871 7.40286 8.0477 8.03098 7.81246 8.79638C7.57788 9.56112 7.46026 10.4203 7.46026 11.3732C7.46026 13.3185 7.90019 14.8158 8.7807 15.8651C9.66121 16.9145 10.7724 17.4388 12.1156 17.4388C12.6673 17.4388 13.2346 17.3196 13.8162 17.0812C13.4659 16.8127 13.0273 16.5435 12.5016 16.2743C11.9752 16.0051 11.6152 15.7975 11.4216 15.6515C11.2273 15.5055 11.1305 15.2979 11.1305 15.0288C11.1305 14.7984 11.224 14.5948 11.4105 14.418C11.597 14.2413 11.8017 14.1529 12.0259 14.1529C12.705 14.1529 13.8422 14.7368 15.4388 15.9053ZM18.0459 17.7736C18.5306 18.1118 19.0609 18.4406 19.6353 18.7593C20.2098 19.0781 20.5899 19.3319 20.7764 19.5207C20.9629 19.7089 21.0565 19.9761 21.0565 20.3216C21.0565 20.568 20.946 20.8138 20.7264 21.0596C20.5061 21.306 20.239 21.4285 19.9258 21.4285C19.6724 21.4285 19.3644 21.3442 19.0031 21.1754C18.6411 21.006 18.2155 20.7602 17.7275 20.4375C17.2388 20.114 16.7033 19.7377 16.1211 19.3071C15.0398 19.8756 13.7116 20.1602 12.1377 20.1602C10.8621 20.1602 9.71904 19.9506 8.70792 19.5321C7.69744 19.1129 6.84877 18.5096 6.16191 17.7214C5.4757 16.9332 4.95909 15.9977 4.61208 14.9136C4.26573 13.8294 4.09222 12.6495 4.09222 11.3732C4.09222 10.0741 4.27287 8.88277 4.63483 7.79862C4.99678 6.71514 5.52054 5.79237 6.20675 5.03098C6.89361 4.27027 7.72864 3.68768 8.71377 3.28455C9.69825 2.88076 10.8172 2.67853 12.0708 2.67853C13.7713 2.67853 15.2315 3.03411 16.4512 3.74527C17.6709 4.45643 18.5943 5.46759 19.2208 6.77808C19.8478 8.08924 20.1611 9.62808 20.1611 11.3966C20.1611 14.0792 19.456 16.2053 18.0459 17.7736Z" fill="white"/>
<path d="M5.03577 8.12593C5.35093 7.17972 5.81036 6.36879 6.4004 5.71522C6.98459 5.06767 7.70849 4.56343 8.55326 4.21722" stroke="white" stroke-linecap="round" stroke-linejoin="round" stroke-dasharray="1 2 6 2 3 1 2 6"/>
<path opacity="0.203766" fill-rule="evenodd" clip-rule="evenodd" d="M20.1283 19.9292C20.088 20.0055 20.038 20.0832 19.9665 20.1636C19.8073 20.341 19.6286 20.4241 19.4051 20.4241C19.1991 20.4241 18.934 20.3491 18.6168 20.2004C18.2705 20.039 17.8553 19.7993 17.3815 19.4859C16.9 19.1671 16.3646 18.7908 15.7901 18.3656L15.629 18.2464L15.4529 18.3395C14.4222 18.8812 13.1317 19.1564 11.617 19.1564C10.3901 19.1564 9.27694 18.9529 8.30805 18.5517C7.34891 18.1546 6.53338 17.5741 5.88356 16.8281C5.23049 16.0787 4.73142 15.1734 4.40001 14.1388C4.09655 13.1912 3.93669 12.1486 3.9081 11.043C3.90485 11.1542 3.89575 11.2613 3.89575 11.3738C3.89575 12.6073 4.06536 13.7638 4.40001 14.8084C4.73142 15.843 5.23049 16.7484 5.88356 17.4977C6.53338 18.2437 7.34891 18.8243 8.30805 19.2214C9.27694 19.6225 10.3901 19.8261 11.617 19.8261C13.1317 19.8261 14.4222 19.5508 15.4529 19.0091L15.629 18.916L15.7901 19.0352C16.3646 19.4604 16.9 19.8368 17.3815 20.1555C17.8553 20.4689 18.2705 20.7087 18.6168 20.87C18.934 21.0187 19.1991 21.0937 19.4051 21.0937C19.6286 21.0937 19.8073 21.0107 19.9665 20.8332C20.1283 20.6517 20.2102 20.4796 20.2102 20.3223C20.2102 20.1609 20.1771 20.037 20.1283 19.9292ZM17.3932 17.414C18.6649 15.9274 19.3154 13.9071 19.3154 11.3966C19.3154 11.2988 19.3044 11.2084 19.3024 11.112C19.2361 13.5133 18.5642 15.4553 17.2867 16.8763L17.0293 17.1629L17.3432 17.3812C17.3588 17.3926 17.377 17.4033 17.3932 17.414Z" fill="#332E09"/>
</svg>
