<svg width="25" height="25" viewBox="0 0 25 25" fill="none" xmlns="http://www.w3.org/2000/svg">
<circle cx="12.5" cy="12.5" r="12.5" fill="#0D0D0D" fill-opacity="0.8"/>
<path d="M6.87029 3.43092L6.77212 3.5155C6.29576 3.92587 6.29577 4.59122 6.77212 5.00159L9.68221 7.50863C10.1586 7.91901 10.9309 7.91901 11.4072 7.50863L11.5054 7.42406C11.9817 7.01368 11.9817 6.34833 11.5054 5.93796L8.5953 3.43092C8.11895 3.02055 7.34664 3.02055 6.87029 3.43092Z" fill="white"/>
<path d="M5.40721 5.38087L5.30904 5.46545C4.83269 5.87582 4.83269 6.54117 5.30904 6.95155L10.0528 11.0383C10.5292 11.4487 11.3015 11.4487 11.7779 11.0383L11.876 10.9537C12.3524 10.5434 12.3524 9.87802 11.876 9.46765L7.13223 5.38087C6.65588 4.9705 5.88356 4.9705 5.40721 5.38087Z" fill="white"/>
<path d="M3.63927 10.39L3.5411 10.4745C3.06475 10.8849 3.06475 11.5503 3.5411 11.9606L5.53959 13.6823C6.01594 14.0927 6.78826 14.0927 7.26461 13.6823L7.36278 13.5978C7.83913 13.1874 7.83913 12.522 7.36278 12.1117L5.36429 10.39C4.88794 9.97959 4.11562 9.97959 3.63927 10.39Z" fill="white"/>
<path d="M13.0447 21.6329H17.5528V18.4835L20.9327 15.601L21.1806 11.808L16.718 7.96355C16.718 7.96355 15.9605 7.51738 15.9743 7.74996C15.988 7.98254 14.35 9.15374 15.2305 9.8858C16.111 10.6179 17.4618 12.2352 17.4618 12.2352L17.2317 14.2932L12.5034 19.4971H10.7679H8.53662V21.6329H13.0447Z" fill="white"/>
<path d="M10.52 19.9243H8.53662V21.6329H10.52V19.9243Z" fill="#7C7C7C"/>
<path d="M6.87029 3.43092L6.77212 3.5155C6.29576 3.92587 6.29577 4.59122 6.77212 5.00159L9.68221 7.50863C10.1586 7.91901 10.9309 7.91901 11.4072 7.50863L11.5054 7.42406C11.9817 7.01368 11.9817 6.34833 11.5054 5.93796L8.5953 3.43092C8.11895 3.02055 7.34664 3.02055 6.87029 3.43092Z" stroke="black" stroke-linecap="round" stroke-linejoin="round"/>
<path d="M3.63927 10.39L3.5411 10.4745C3.06475 10.8849 3.06475 11.5503 3.5411 11.9606L5.53959 13.6823C6.01594 14.0927 6.78826 14.0927 7.26461 13.6823L7.36278 13.5978C7.83913 13.1874 7.83913 12.522 7.36278 12.1117L5.36429 10.39C4.88794 9.97959 4.11562 9.97959 3.63927 10.39Z" stroke="black" stroke-linecap="round" stroke-linejoin="round"/>
<path d="M9.35477 15.5073H4.22777C3.90512 15.5073 3.59562 15.3972 3.36701 15.201C3.1384 15.0049 3.00931 14.7387 3.008 14.4607V14.3368C3.00931 14.0589 3.1384 13.7927 3.36701 13.5966C3.59562 13.4004 3.90512 13.2903 4.22777 13.2903H5.10045" stroke="black" stroke-linecap="round" stroke-linejoin="round"/>
<path d="M8.4425 17.7243H5.46745C5.14481 17.7243 4.8353 17.6142 4.60669 17.4181C4.37808 17.2219 4.24899 16.9557 4.24768 16.6778V16.5539C4.24899 16.2759 4.37808 16.0097 4.60669 15.8136C4.8353 15.6174 5.14481 15.5073 5.46745 15.5073H8.00616" stroke="black" stroke-linecap="round" stroke-linejoin="round"/>
<path d="M10.3465 17.7243H7.11357C6.79092 17.7243 6.48142 17.8345 6.25281 18.0306C6.0242 18.2268 5.89511 18.4929 5.8938 18.7709V18.8948C5.90029 19.1698 6.03166 19.4316 6.25971 19.6241C6.48776 19.8165 6.79432 19.9243 7.11357 19.9243H12.667L15.5578 16.9597" stroke="black" stroke-linecap="round" stroke-linejoin="round"/>
<path d="M5.40721 5.38087L5.30904 5.46545C4.83269 5.87582 4.83269 6.54117 5.30904 6.95155L10.0528 11.0383C10.5292 11.4487 11.3015 11.4487 11.7779 11.0383L11.876 10.9537C12.3524 10.5434 12.3524 9.87802 11.876 9.46765L7.13223 5.38087C6.65588 4.9705 5.88356 4.9705 5.40721 5.38087Z" stroke="black" stroke-linecap="round" stroke-linejoin="round"/>
<path d="M4.54222 7.83546L4.44405 7.92004C3.9677 8.33041 3.9677 8.99576 4.44405 9.40614L9.18785 13.4929C9.6642 13.9033 10.4365 13.9033 10.9129 13.4929L11.011 13.4083C11.4874 12.998 11.4874 12.3326 11.011 11.9222L6.26724 7.83546C5.79089 7.42509 5.01857 7.42509 4.54222 7.83546Z" fill="white"/>
<path d="M4.54222 7.83546L4.44405 7.92004C3.9677 8.33041 3.9677 8.99576 4.44405 9.40614L9.18785 13.4929C9.6642 13.9033 10.4365 13.9033 10.9129 13.4929L11.011 13.4083C11.4874 12.998 11.4874 12.3326 11.011 11.9222L6.26724 7.83546C5.79089 7.42509 5.01857 7.42509 4.54222 7.83546Z" stroke="black" stroke-linecap="round" stroke-linejoin="round"/>
<path d="M17.7899 21.2058V18.413L20.7185 15.6278C21.1732 15.1963 21.4272 14.6245 21.4285 14.0297V12.2186C21.4324 11.8604 21.2808 11.5149 21.0059 11.2559L17.3462 7.90382C17.2177 7.7874 17.065 7.695 16.8967 7.63195C16.7285 7.5689 16.548 7.53644 16.3658 7.53644C16.1835 7.53644 16.003 7.5689 15.8348 7.63195C15.6665 7.695 15.5138 7.7874 15.3853 7.90382V7.90382C15.2577 8.01835 15.1564 8.15444 15.0873 8.30429C15.0182 8.45414 14.9826 8.61479 14.9826 8.77705C14.9826 8.9393 15.0182 9.09996 15.0873 9.2498C15.1564 9.39965 15.2577 9.53574 15.3853 9.65027L17.4222 11.4918C17.6654 11.758 17.8128 12.0845 17.8448 12.4279C17.913 12.8798 17.8697 13.3396 17.7181 13.7748" stroke="black" stroke-linecap="round" stroke-linejoin="round"/>
<path d="M17.9576 3.26477V5.4408C17.9601 5.68583 18.0524 5.92633 18.2257 6.13936C18.3989 6.35239 18.6474 6.53084 18.9473 6.65769C19.2503 6.7852 19.5011 6.96528 19.6752 7.18047C19.8493 7.39567 19.9409 7.63866 19.941 7.88588V10.0994" stroke="black" stroke-linecap="round" stroke-linejoin="round"/>
<path d="M10.4456 17.7243L14.214 14.1874" stroke="black" stroke-linecap="round" stroke-linejoin="round"/>
<path d="M8.04083 21.2058L8.04083 19.9243" stroke="black" stroke-linecap="round" stroke-linejoin="round"/>
</svg>
