<svg width="29" height="29" viewBox="0 0 29 29" fill="none" xmlns="http://www.w3.org/2000/svg">
<circle cx="14.5" cy="14.5" r="14.5" fill="#33404D"/>
<path d="M7.14959 25V3.90909H15.0587C16.6789 3.90909 18.0383 4.19058 19.1368 4.75355C20.2422 5.31652 21.0763 6.10606 21.6393 7.12216C22.2091 8.13139 22.4941 9.30883 22.4941 10.6545C22.4941 12.007 22.2057 13.181 21.629 14.1765C21.0592 15.1651 20.2181 15.9306 19.1059 16.473C17.9937 17.0085 16.6275 17.2763 15.0072 17.2763H9.37402V14.1044H14.4923C15.4397 14.1044 16.2155 13.974 16.8197 13.7131C17.4239 13.4453 17.8701 13.0574 18.1585 12.5494C18.4537 12.0344 18.6013 11.4028 18.6013 10.6545C18.6013 9.90613 18.4537 9.26764 18.1585 8.73899C17.8633 8.20348 17.4136 7.79841 16.8094 7.52379C16.2052 7.24231 15.426 7.10156 14.4717 7.10156H10.9703V25H7.14959ZM18.0452 15.4432L23.2664 25H19.0029L13.8744 15.4432H18.0452Z" fill="#FFBF00"/>
</svg>
