<svg width="59" height="42" viewBox="0 0 59 42" fill="none" xmlns="http://www.w3.org/2000/svg">
<circle cx="28.5" cy="12.5" r="11.5" stroke="#45FF4C" stroke-width="2" stroke-dasharray="2 2"/>
<path d="M21.0029 10.779C20.9649 10.3177 21.3088 9.92111 21.7468 9.92111H23.1724C23.5848 9.92111 23.9191 10.2746 23.9191 10.7106V18.2105C23.9191 18.6466 23.5848 19 23.1724 19H22.3636C21.9763 19 21.6533 18.6869 21.6197 18.2789L21.0029 10.779Z" stroke="#45FF4C" stroke-width="2" stroke-linecap="round" stroke-linejoin="round"/>
<path d="M27 10.4636C27 10.1337 27.1773 9.83847 27.4355 9.69783C27.9983 9.39108 28.9575 8.77387 29.3902 7.93967C29.9478 6.86457 30.0529 4.92209 30.0701 4.47715C30.0724 4.41486 30.0709 4.3525 30.0783 4.29075C30.1707 3.52018 31.4574 4.42036 31.951 5.37215C32.2189 5.8887 32.2533 6.56737 32.2251 7.09722C32.195 7.66415 32.0512 8.2118 31.9101 8.75591L31.6096 9.91494H35.3167C35.7696 9.91494 36.097 10.4152 35.9739 10.919L34.1402 18.4251C34.0571 18.7652 33.7887 19 33.483 19H27.6829C27.3057 19 27 18.6466 27 18.2105V10.4636Z" stroke="#45FF4C" stroke-width="2" stroke-linecap="round" stroke-linejoin="round"/>
<path d="M8.112 28.956V34.644H9.72V28.956H8.112ZM2.304 35.088V36.3H8.136V36.96H2.328V39.24H3.888V38.076H9.72V35.088H2.304ZM2.328 38.772V39.996H9.996V38.772H2.328ZM3.18 30.012V30.444C3.18 31.716 2.376 33.012 0.528 33.528L1.26 34.776C3.432 34.164 4.476 32.412 4.476 30.444V30.012H3.18ZM3.528 30.012V30.444C3.528 32.304 4.548 33.972 6.684 34.548L7.416 33.324C5.604 32.832 4.812 31.62 4.812 30.444V30.012H3.528ZM0.948 29.46V30.72H6.996V29.46H0.948ZM11.5191 34.44V35.712H21.5751V34.44H11.5191ZM15.8751 35.244V37.584H17.4831V35.244H15.8751ZM12.7551 29.424V33.552H20.3031V29.424H12.7551ZM18.7311 30.672V32.304H14.3151V30.672H18.7311ZM12.6831 38.604V39.876H20.4711V38.604H12.6831ZM12.6831 36.648V39.024H14.2671V36.648H12.6831ZM25.0541 30.708V31.956C25.0541 33.78 24.1541 35.856 22.3181 36.72L23.2181 37.98C25.2581 37.02 26.3141 34.464 26.3141 31.956V30.708H25.0541ZM25.3901 30.708V31.956C25.3901 34.32 26.4221 36.756 28.4621 37.704L29.3381 36.444C27.5141 35.604 26.6501 33.636 26.6501 31.956V30.708H25.3901ZM22.7501 30.024V31.332H28.8461V30.024H22.7501ZM29.6621 28.956V40.068H31.2701V28.956H29.6621ZM30.9101 33.192V34.512H32.8781V33.192H30.9101ZM38.3185 32.028V32.316C38.3185 34.02 37.7545 35.832 36.1705 36.756L37.0705 37.956C38.8465 36.936 39.5185 34.62 39.5185 32.316V32.028H38.3185ZM38.6305 32.028V32.316C38.6305 34.584 39.3145 36.756 41.1145 37.692L41.9785 36.516C40.4065 35.676 39.8305 33.984 39.8305 32.316V32.028H38.6305ZM36.5425 30.828V32.112H41.5945V30.828H36.5425ZM38.3185 29.328V31.86H39.8305V29.328H38.3185ZM44.4865 28.956V40.068H45.9985V28.956H44.4865ZM43.1545 33.216V34.512H45.0025V33.216H43.1545ZM42.0985 29.124V39.564H43.5865V29.124H42.0985ZM47.7856 34.02V35.316H48.5536C50.2096 35.316 51.2896 35.28 52.5616 35.064L52.4176 33.792C51.1936 33.996 50.1616 34.02 48.5536 34.02H47.7856ZM47.7856 29.7V34.728H49.3216V30.972H52.1656V29.7H47.7856ZM48.8656 31.872V33.072H52.0456V31.872H48.8656ZM55.3696 28.956V35.736H56.8816V28.956H55.3696ZM54.0376 31.68V32.952H55.8016V31.68H54.0376ZM52.9936 29.16V35.664H54.4816V29.16H52.9936ZM49.2496 36.216V37.488H55.2976V40.068H56.8816V36.216H49.2496Z" fill="#45FF4C"/>
</svg>
