<svg width="83" height="19" viewBox="0 0 83 19" fill="none" xmlns="http://www.w3.org/2000/svg">
<path d="M32.112 5.956V11.644H33.72V5.956H32.112ZM26.304 12.088V13.3H32.136V13.96H26.328V16.24H27.888V15.076H33.72V12.088H26.304ZM26.328 15.772V16.996H33.996V15.772H26.328ZM27.18 7.012V7.444C27.18 8.716 26.376 10.012 24.528 10.528L25.26 11.776C27.432 11.164 28.476 9.412 28.476 7.444V7.012H27.18ZM27.528 7.012V7.444C27.528 9.304 28.548 10.972 30.684 11.548L31.416 10.324C29.604 9.832 28.812 8.62 28.812 7.444V7.012H27.528ZM24.948 6.46V7.72H30.996V6.46H24.948ZM35.5191 11.44V12.712H45.5751V11.44H35.5191ZM39.8751 12.244V14.584H41.4831V12.244H39.8751ZM36.7551 6.424V10.552H44.3031V6.424H36.7551ZM42.7311 7.672V9.304H38.3151V7.672H42.7311ZM36.6831 15.604V16.876H44.4711V15.604H36.6831ZM36.6831 13.648V16.024H38.2671V13.648H36.6831ZM49.0541 7.708V8.956C49.0541 10.78 48.1541 12.856 46.3181 13.72L47.2181 14.98C49.2581 14.02 50.3141 11.464 50.3141 8.956V7.708H49.0541ZM49.3901 7.708V8.956C49.3901 11.32 50.4221 13.756 52.4621 14.704L53.3381 13.444C51.5141 12.604 50.6501 10.636 50.6501 8.956V7.708H49.3901ZM46.7501 7.024V8.332H52.8461V7.024H46.7501ZM53.6621 5.956V17.068H55.2701V5.956H53.6621ZM54.9101 10.192V11.512H56.8781V10.192H54.9101ZM62.3185 9.028V9.316C62.3185 11.02 61.7545 12.832 60.1705 13.756L61.0705 14.956C62.8465 13.936 63.5185 11.62 63.5185 9.316V9.028H62.3185ZM62.6305 9.028V9.316C62.6305 11.584 63.3145 13.756 65.1145 14.692L65.9785 13.516C64.4065 12.676 63.8305 10.984 63.8305 9.316V9.028H62.6305ZM60.5425 7.828V9.112H65.5945V7.828H60.5425ZM62.3185 6.328V8.86H63.8305V6.328H62.3185ZM68.4865 5.956V17.068H69.9985V5.956H68.4865ZM67.1545 10.216V11.512H69.0025V10.216H67.1545ZM66.0985 6.124V16.564H67.5865V6.124H66.0985ZM71.7856 11.02V12.316H72.5536C74.2096 12.316 75.2896 12.28 76.5616 12.064L76.4176 10.792C75.1936 10.996 74.1616 11.02 72.5536 11.02H71.7856ZM71.7856 6.7V11.728H73.3216V7.972H76.1656V6.7H71.7856ZM72.8656 8.872V10.072H76.0456V8.872H72.8656ZM79.3696 5.956V12.736H80.8816V5.956H79.3696ZM78.0376 8.68V9.952H79.8016V8.68H78.0376ZM76.9936 6.16V12.664H78.4816V6.16H76.9936ZM73.2496 13.216V14.488H79.2976V17.068H80.8816V13.216H73.2496Z" fill="#45FF4C"/>
<path d="M1.00305 7.83917C0.962589 7.37379 1.32943 6.97368 1.79654 6.97368H3.31723C3.75713 6.97368 4.11371 7.33026 4.11371 7.77016V15.3367C4.11371 15.7766 3.75713 16.1332 3.31723 16.1332H2.4545C2.04136 16.1332 1.6968 15.8173 1.66101 15.4057L1.00305 7.83917Z" stroke="#45FF4C" stroke-width="2" stroke-linecap="round" stroke-linejoin="round"/>
<path d="M6.50317 7.52097C6.50317 7.18816 6.71002 6.89028 7.01105 6.74839C7.66755 6.43892 8.78624 5.81623 9.29085 4.97463C9.94122 3.88998 10.0639 1.93027 10.0838 1.48138C10.0866 1.41855 10.0848 1.35563 10.0935 1.29333C10.2013 0.515924 11.7019 1.42409 12.2776 2.38433C12.5901 2.90546 12.6302 3.59015 12.5973 4.12471C12.5621 4.69666 12.3944 5.24918 12.2299 5.79811L11.8794 6.96742H16.2031C16.7312 6.96742 17.1131 7.47211 16.9695 7.98038L14.8309 15.5531C14.734 15.8962 14.4209 16.1331 14.0644 16.1331H7.29965C6.85976 16.1331 6.50317 15.7765 6.50317 15.3366V7.52097Z" stroke="#45FF4C" stroke-width="2" stroke-linecap="round" stroke-linejoin="round"/>
</svg>
