<svg width="30" height="30" viewBox="0 0 30 30" fill="none" xmlns="http://www.w3.org/2000/svg">
<g id="logo">
<path id="D" d="M7 24V6H13.2352C14.4549 6 15.5784 6.32759 16.6056 6.98276C17.6488 7.63793 18.4753 8.52586 19.0852 9.64655C19.6951 10.75 20 11.9569 20 13.2672V16.7328C20 18.0431 19.6951 19.2586 19.0852 20.3793C18.4753 21.4828 17.6488 22.3621 16.6056 23.0172C15.5784 23.6724 14.4549 24 13.2352 24H7Z" fill="#00B188"/>
<path id="D_2" d="M12 24V6H17.2759C18.308 6 19.2586 6.32759 20.1278 6.98276C21.0105 7.63793 21.7099 8.52586 22.2259 9.64655C22.742 10.75 23 11.9569 23 13.2672V16.7328C23 18.0431 22.742 19.2586 22.2259 20.3793C21.7099 21.4828 21.0105 22.3621 20.1278 23.0172C19.2586 23.6724 18.308 24 17.2759 24H12Z" fill="#9E08DA"/>
</g>
</svg>
