<svg width="46" height="46" viewBox="0 0 46 46" fill="none" xmlns="http://www.w3.org/2000/svg">
<path d="M6 43V4H18.95C21.4833 4 23.8167 4.70977 25.95 6.12931C28.1167 7.54885 29.8333 9.4727 31.1 11.9009C32.3667 14.2917 33 16.9066 33 19.7457V27.2543C33 30.0934 32.3667 32.727 31.1 35.1552C29.8333 37.546 28.1167 39.4512 25.95 40.8707C23.8167 42.2902 21.4833 43 18.95 43H6Z" fill="#00B188"/>
<path d="M17 43V4H28.0315C30.1895 4 32.1772 4.70977 33.9944 6.12931C35.8401 7.54885 37.3025 9.4727 38.3815 11.9009C39.4605 14.2917 40 16.9066 40 19.7457V27.2543C40 30.0934 39.4605 32.727 38.3815 35.1552C37.3025 37.546 35.8401 39.4512 33.9944 40.8707C32.1772 42.2902 30.1895 43 28.0315 43H17Z" fill="#9E08DA"/>
</svg>
