<svg width="46" height="46" viewBox="0 0 46 46" fill="none" xmlns="http://www.w3.org/2000/svg">
<path d="M5 41V5H18.4296C21.0568 5 23.4765 5.65517 25.6889 6.96552C27.9358 8.27586 29.7161 10.0517 31.0296 12.2931C32.3432 14.5 33 16.9138 33 19.5345V26.4655C33 29.0862 32.3432 31.5172 31.0296 33.7586C29.7161 35.9655 27.9358 37.7241 25.6889 39.0345C23.4765 40.3448 21.0568 41 18.4296 41H5Z" fill="#00B188"/>
<path d="M18 41V5H29.0315C31.1895 5 33.1772 5.65517 34.9944 6.96552C36.8401 8.27586 38.3025 10.0517 39.3815 12.2931C40.4605 14.5 41 16.9138 41 19.5345V26.4655C41 29.0862 40.4605 31.5172 39.3815 33.7586C38.3025 35.9655 36.8401 37.7241 34.9944 39.0345C33.1772 40.3448 31.1895 41 29.0315 41H18Z" fill="#9E08DA"/>
</svg>
