<svg width="102" height="23" viewBox="0 0 102 23" fill="none" xmlns="http://www.w3.org/2000/svg">
<g id="logo">
<g id="Dob a">
<path d="M23.46 20.71V22H0V20.71H2.91V1.03H10.11C13.87 1.03 16.76 1.95 18.78 3.79C20.8 5.61 21.81 8.18 21.81 11.5C21.81 15.96 20.05 19.03 16.53 20.71H23.46ZM18.24 11.5C18.24 6.7 15.49 4.3 9.99 4.3H6.45V18.67H10.38C12.92 18.67 14.86 18.07 16.2 16.87C17.56 15.65 18.24 13.86 18.24 11.5ZM42.9668 20.71V22H17.7668V20.71H24.6368C22.9968 19.77 21.6968 18.48 20.7368 16.84C19.7968 15.2 19.3268 13.37 19.3268 11.35C19.3268 8.27 20.3868 5.7 22.5068 3.64C24.6268 1.56 27.2468 0.519999 30.3668 0.519999C33.4868 0.519999 36.1068 1.56 38.2268 3.64C40.3468 5.7 41.4068 8.27 41.4068 11.35C41.4068 13.35 40.9268 15.18 39.9668 16.84C39.0268 18.5 37.7368 19.79 36.0968 20.71H42.9668ZM35.6168 5.98C34.1968 4.5 32.4468 3.76 30.3668 3.76C28.2868 3.76 26.5268 4.5 25.0868 5.98C23.6668 7.46 22.9568 9.26 22.9568 11.38C22.9568 13.48 23.6668 15.27 25.0868 16.75C26.5268 18.23 28.2868 18.97 30.3668 18.97C32.4468 18.97 34.1968 18.23 35.6168 16.75C37.0568 15.27 37.7768 13.48 37.7768 11.38C37.7768 9.26 37.0568 7.46 35.6168 5.98ZM58.4421 20.71V22H37.2621V20.71H40.1721V1.03H48.3321C49.7521 1.03 50.9721 1.2 51.9921 1.54C53.0321 1.88 53.8021 2.34 54.3021 2.92C55.2621 4 55.7421 5.22 55.7421 6.58C55.7421 8.22 55.2221 9.44 54.1821 10.24C53.8021 10.52 53.5421 10.7 53.4021 10.78C53.2621 10.84 53.0121 10.95 52.6521 11.11C53.9521 11.39 54.9821 11.98 55.7421 12.88C56.5221 13.76 56.9121 14.86 56.9121 16.18C56.9121 18.16 56.1321 19.67 54.5721 20.71H58.4421ZM43.7121 18.73H49.2621C50.5621 18.73 51.5521 18.53 52.2321 18.13C52.9321 17.71 53.2821 16.93 53.2821 15.79C53.2821 13.93 51.7921 13 48.8121 13H43.7121V18.73ZM43.7121 9.73H48.2121C50.7721 9.73 52.0521 8.86 52.0521 7.12C52.0521 6.12 51.7421 5.4 51.1221 4.96C50.5021 4.52 49.5421 4.3 48.2421 4.3H43.7121V9.73ZM60.9638 20.71V22H52.7438V20.71H60.9638ZM63.4962 20.71V22H55.2762V20.71H63.4962ZM66.0286 20.71V22H57.8086V20.71H66.0286ZM68.561 20.71V22H60.341V20.71H68.561ZM71.0934 20.71V22H62.8734V20.71H71.0934ZM73.6259 20.71V22H65.4059V20.71H73.6259ZM76.1583 20.71V22H67.9383V20.71H76.1583ZM78.6907 20.71V22H70.4707V20.71H78.6907ZM81.2231 20.71V22H73.0031V20.71H81.2231Z" fill="#9E08DA"/>
<path d="M100.706 20.71V22H94.0156L91.9156 17.23H81.4156L79.3156 22H72.6256V20.71H76.1056L84.7756 1.03H88.5556L97.2256 20.71H100.706ZM90.4756 13.96L86.6656 5.32L82.8556 13.96H90.4756Z" fill="#00BE92"/>
</g>
<g id="Dob da">
<path d="M24.46 21.71V23H1V21.71H3.91V2.03H11.11C14.87 2.03 17.76 2.95 19.78 4.79C21.8 6.61 22.81 9.18 22.81 12.5C22.81 16.96 21.05 20.03 17.53 21.71H24.46ZM19.24 12.5C19.24 7.7 16.49 5.3 10.99 5.3H7.45V19.67H11.38C13.92 19.67 15.86 19.07 17.2 17.87C18.56 16.65 19.24 14.86 19.24 12.5ZM43.9668 21.71V23H18.7668V21.71H25.6368C23.9968 20.77 22.6968 19.48 21.7368 17.84C20.7968 16.2 20.3268 14.37 20.3268 12.35C20.3268 9.27 21.3868 6.7 23.5068 4.64C25.6268 2.56 28.2468 1.52 31.3668 1.52C34.4868 1.52 37.1068 2.56 39.2268 4.64C41.3468 6.7 42.4068 9.27 42.4068 12.35C42.4068 14.35 41.9268 16.18 40.9668 17.84C40.0268 19.5 38.7368 20.79 37.0968 21.71H43.9668ZM36.6168 6.98C35.1968 5.5 33.4468 4.76 31.3668 4.76C29.2868 4.76 27.5268 5.5 26.0868 6.98C24.6668 8.46 23.9568 10.26 23.9568 12.38C23.9568 14.48 24.6668 16.27 26.0868 17.75C27.5268 19.23 29.2868 19.97 31.3668 19.97C33.4468 19.97 35.1968 19.23 36.6168 17.75C38.0568 16.27 38.7768 14.48 38.7768 12.38C38.7768 10.26 38.0568 8.46 36.6168 6.98ZM59.4421 21.71V23H38.2621V21.71H41.1721V2.03H49.3321C50.7521 2.03 51.9721 2.2 52.9921 2.54C54.0321 2.88 54.8021 3.34 55.3021 3.92C56.2621 5 56.7421 6.22 56.7421 7.58C56.7421 9.22 56.2221 10.44 55.1821 11.24C54.8021 11.52 54.5421 11.7 54.4021 11.78C54.2621 11.84 54.0121 11.95 53.6521 12.11C54.9521 12.39 55.9821 12.98 56.7421 13.88C57.5221 14.76 57.9121 15.86 57.9121 17.18C57.9121 19.16 57.1321 20.67 55.5721 21.71H59.4421ZM44.7121 19.73H50.2621C51.5621 19.73 52.5521 19.53 53.2321 19.13C53.9321 18.71 54.2821 17.93 54.2821 16.79C54.2821 14.93 52.7921 14 49.8121 14H44.7121V19.73ZM44.7121 10.73H49.2121C51.7721 10.73 53.0521 9.86 53.0521 8.12C53.0521 7.12 52.7421 6.4 52.1221 5.96C51.5021 5.52 50.5421 5.3 49.2421 5.3H44.7121V10.73ZM61.9638 21.71V23H53.7438V21.71H61.9638ZM64.4962 21.71V23H56.2762V21.71H64.4962Z" fill="#00BE92"/>
<path d="M82.2686 21.71V23H58.8086V21.71H61.7186V2.03H68.9186C72.6786 2.03 75.5686 2.95 77.5886 4.79C79.6086 6.61 80.6186 9.18 80.6186 12.5C80.6186 16.96 78.8586 20.03 75.3386 21.71H82.2686ZM77.0486 12.5C77.0486 7.7 74.2986 5.3 68.7986 5.3H65.2586V19.67H69.1886C71.7286 19.67 73.6686 19.07 75.0086 17.87C76.3686 16.65 77.0486 14.86 77.0486 12.5ZM99.9454 21.71V23H93.2554L91.1554 18.23H80.6554L78.5554 23H71.8654V21.71H75.3454L84.0154 2.03H87.7954L96.4654 21.71H99.9454ZM89.7154 14.96L85.9054 6.32L82.0954 14.96H89.7154Z" fill="#9E08DA"/>
</g>
</g>
</svg>
