<svg width="80" height="23" viewBox="0 0 80 23" fill="none" xmlns="http://www.w3.org/2000/svg">
<path d="M8.24 22.36C7.08 22.36 6.02 22.18 5.06 21.82C4.1 21.44 3.27 20.89 2.57 20.17C1.87 19.45 1.32 18.59 0.92 17.59C0.54 16.57 0.35 15.43 0.35 14.17C0.35 12.57 0.67 11.19 1.31 10.03C1.97 8.85 2.86 7.94 3.98 7.3C5.12 6.66 6.39 6.34 7.79 6.34C8.57 6.34 9.31 6.47 10.01 6.73C10.73 6.99 11.37 7.35 11.93 7.81C12.49 8.27 12.93 8.81 13.25 9.43H13.31V0.0999994H16.07V14.26C16.07 15.96 15.72 17.42 15.02 18.64C14.34 19.84 13.41 20.76 12.23 21.4C11.07 22.04 9.74 22.36 8.24 22.36ZM8.24 19.99C9.18 19.99 10.03 19.76 10.79 19.3C11.55 18.84 12.15 18.19 12.59 17.35C13.05 16.51 13.28 15.52 13.28 14.38C13.28 13.22 13.05 12.22 12.59 11.38C12.15 10.52 11.55 9.86 10.79 9.4C10.03 8.94 9.17 8.71 8.21 8.71C7.27 8.71 6.41 8.95 5.63 9.43C4.87 9.91 4.26 10.57 3.8 11.41C3.36 12.25 3.14 13.23 3.14 14.35C3.14 15.51 3.37 16.51 3.83 17.35C4.29 18.19 4.9 18.84 5.66 19.3C6.44 19.76 7.3 19.99 8.24 19.99ZM24.4002 22.36C22.8402 22.36 21.4602 22.01 20.2602 21.31C19.0602 20.59 18.1102 19.63 17.4102 18.43C16.7102 17.21 16.3602 15.85 16.3602 14.35C16.3602 12.85 16.7102 11.5 17.4102 10.3C18.1102 9.08 19.0602 8.12 20.2602 7.42C21.4602 6.7 22.8402 6.34 24.4002 6.34C25.9602 6.34 27.3402 6.7 28.5402 7.42C29.7602 8.12 30.7102 9.07 31.3902 10.27C32.0902 11.47 32.4402 12.83 32.4402 14.35C32.4402 15.85 32.0902 17.21 31.3902 18.43C30.7102 19.63 29.7602 20.59 28.5402 21.31C27.3402 22.01 25.9602 22.36 24.4002 22.36ZM24.4002 19.99C25.4602 19.99 26.3802 19.74 27.1602 19.24C27.9402 18.74 28.5502 18.07 28.9902 17.23C29.4302 16.37 29.6502 15.41 29.6502 14.35C29.6502 13.29 29.4302 12.34 28.9902 11.5C28.5502 10.64 27.9402 9.96 27.1602 9.46C26.3802 8.96 25.4602 8.71 24.4002 8.71C23.3602 8.71 22.4402 8.96 21.6402 9.46C20.8602 9.96 20.2502 10.64 19.8102 11.5C19.3702 12.34 19.1502 13.29 19.1502 14.35C19.1502 15.41 19.3702 16.37 19.8102 17.23C20.2502 18.07 20.8602 18.74 21.6402 19.24C22.4402 19.74 23.3602 19.99 24.4002 19.99ZM40.5695 22.36C39.0895 22.36 37.7595 22.04 36.5795 21.4C35.3995 20.76 34.4595 19.84 33.7595 18.64C33.0795 17.42 32.7395 15.96 32.7395 14.26V0.0999994H35.4995V9.43H35.5595C35.8995 8.81 36.3395 8.27 36.8795 7.81C37.4395 7.35 38.0695 6.99 38.7695 6.73C39.4895 6.47 40.2395 6.34 41.0195 6.34C42.4395 6.34 43.7095 6.66 44.8295 7.3C45.9495 7.94 46.8295 8.85 47.4695 10.03C48.1295 11.19 48.4595 12.57 48.4595 14.17C48.4595 15.43 48.2595 16.57 47.8595 17.59C47.4795 18.59 46.9395 19.45 46.2395 20.17C45.5395 20.89 44.7095 21.44 43.7495 21.82C42.7895 22.18 41.7295 22.36 40.5695 22.36ZM40.5695 19.99C41.5095 19.99 42.3595 19.76 43.1195 19.3C43.8995 18.84 44.5195 18.19 44.9795 17.35C45.4395 16.51 45.6695 15.51 45.6695 14.35C45.6695 13.23 45.4395 12.25 44.9795 11.41C44.5395 10.57 43.9395 9.91 43.1795 9.43C42.4195 8.95 41.5595 8.71 40.5995 8.71C39.6595 8.71 38.7995 8.94 38.0195 9.4C37.2595 9.86 36.6495 10.52 36.1895 11.38C35.7495 12.22 35.5295 13.22 35.5295 14.38C35.5295 15.52 35.7495 16.51 36.1895 17.35C36.6495 18.19 37.2595 18.84 38.0195 19.3C38.7995 19.76 39.6495 19.99 40.5695 19.99ZM55.8896 22.36C54.7296 22.36 53.6696 22.18 52.7096 21.82C51.7496 21.44 50.9196 20.89 50.2196 20.17C49.5196 19.45 48.9696 18.59 48.5696 17.59C48.1896 16.57 47.9996 15.43 47.9996 14.17C47.9996 12.57 48.3196 11.19 48.9596 10.03C49.6196 8.85 50.5096 7.94 51.6296 7.3C52.7696 6.66 54.0396 6.34 55.4396 6.34C56.2196 6.34 56.9596 6.47 57.6596 6.73C58.3796 6.99 59.0196 7.35 59.5796 7.81C60.1396 8.27 60.5796 8.81 60.8996 9.43H60.9596V0.0999994H63.7196V14.26C63.7196 15.96 63.3696 17.42 62.6696 18.64C61.9896 19.84 61.0596 20.76 59.8796 21.4C58.7196 22.04 57.3896 22.36 55.8896 22.36ZM55.8896 19.99C56.8296 19.99 57.6796 19.76 58.4396 19.3C59.1996 18.84 59.7996 18.19 60.2396 17.35C60.6996 16.51 60.9296 15.52 60.9296 14.38C60.9296 13.22 60.6996 12.22 60.2396 11.38C59.7996 10.52 59.1996 9.86 58.4396 9.4C57.6796 8.94 56.8196 8.71 55.8596 8.71C54.9196 8.71 54.0596 8.95 53.2796 9.43C52.5196 9.91 51.9096 10.57 51.4496 11.41C51.0096 12.25 50.7896 13.23 50.7896 14.35C50.7896 15.51 51.0196 16.51 51.4796 17.35C51.9396 18.19 52.5496 18.84 53.3096 19.3C54.0896 19.76 54.9496 19.99 55.8896 19.99ZM71.2098 22.36C69.7298 22.36 68.4498 22.01 67.3698 21.31C66.2898 20.59 65.4598 19.62 64.8798 18.4C64.2998 17.18 64.0098 15.83 64.0098 14.35C64.0098 12.85 64.3298 11.5 64.9698 10.3C65.6098 9.08 66.5298 8.12 67.7298 7.42C68.9298 6.7 70.3698 6.34 72.0498 6.34C73.6698 6.34 75.0598 6.69 76.2198 7.39C77.3798 8.09 78.2698 9.04 78.8898 10.24C79.5298 11.44 79.8498 12.78 79.8498 14.26V22H77.0598V18.88H76.9998C76.6998 19.46 76.2898 20.02 75.7698 20.56C75.2698 21.08 74.6398 21.51 73.8798 21.85C73.1198 22.19 72.2298 22.36 71.2098 22.36ZM71.9298 19.99C72.9298 19.99 73.8098 19.75 74.5698 19.27C75.3498 18.77 75.9498 18.09 76.3698 17.23C76.8098 16.35 77.0298 15.37 77.0298 14.29C77.0298 13.23 76.8198 12.28 76.3998 11.44C75.9998 10.6 75.4198 9.94 74.6598 9.46C73.8998 8.96 73.0098 8.71 71.9898 8.71C70.9098 8.71 69.9798 8.96 69.1998 9.46C68.4398 9.96 67.8498 10.64 67.4298 11.5C67.0298 12.34 66.8298 13.3 66.8298 14.38C66.8298 15.42 67.0298 16.37 67.4298 17.23C67.8298 18.07 68.4098 18.74 69.1698 19.24C69.9298 19.74 70.8498 19.99 71.9298 19.99Z" fill="#71009E"/>
</svg>
