<svg width="21" height="22" viewBox="0 0 21 22" fill="none" xmlns="http://www.w3.org/2000/svg">
<path fill-rule="evenodd" clip-rule="evenodd" d="M13.544 15.5194C14.0869 14.8791 14.4872 14.1216 14.7457 13.2464C15.0034 12.3711 15.133 11.3567 15.133 10.2017C15.133 8.74971 14.905 7.49179 14.4498 6.42714C13.9946 5.3625 13.345 4.55793 12.5002 4.01186C11.6554 3.46657 10.6863 3.19314 9.59219 3.19314C8.81296 3.19314 8.09319 3.34479 7.43214 3.6465C6.77109 3.949 6.20229 4.389 5.725 4.96571C5.24846 5.54321 4.8718 6.28021 4.59579 7.17829C4.32054 8.07557 4.18254 9.08364 4.18254 10.2017C4.18254 12.4842 4.69872 14.2411 5.73186 15.4723C6.76499 16.7035 8.06879 17.3187 9.6448 17.3187C10.2921 17.3187 10.9578 17.1789 11.6402 16.8991C11.2292 16.5841 10.7145 16.2682 10.0977 15.9524C9.48011 15.6365 9.0577 15.3929 8.83049 15.2216C8.60252 15.0504 8.48891 14.8068 8.48891 14.4909C8.48891 14.2206 8.5987 13.9818 8.81753 13.7744C9.03636 13.5669 9.27653 13.4632 9.53958 13.4632C10.3363 13.4632 11.6707 14.1484 13.544 15.5194ZM16.603 17.7116C17.1718 18.1084 17.794 18.4941 18.468 18.8681C19.142 19.2421 19.588 19.5399 19.8069 19.7615C20.0257 19.9823 20.1355 20.2958 20.1355 20.7012C20.1355 20.9904 20.0059 21.2787 19.7481 21.5671C19.4897 21.8562 19.1763 22 18.8088 22C18.5114 22 18.15 21.901 17.7261 21.703C17.3014 21.5042 16.802 21.2159 16.2294 20.8371C15.656 20.4576 15.0278 20.0161 14.3446 19.5109C13.0759 20.1779 11.5174 20.5119 9.67072 20.5119C8.17401 20.5119 6.83285 20.2659 5.64646 19.7749C4.46084 19.283 3.46507 18.5751 2.65915 17.6503C1.85399 16.7255 1.24783 15.6279 0.84068 14.3558C0.43429 13.0837 0.230713 11.6993 0.230713 10.2017C0.230713 8.67743 0.442677 7.27964 0.867366 6.00757C1.29206 4.73629 1.9066 3.65357 2.71176 2.76021C3.51768 1.86764 4.49744 1.18407 5.65332 0.711071C6.80845 0.237286 8.1214 0 9.59219 0C11.5875 0 13.3008 0.417214 14.7319 1.25164C16.1631 2.08607 17.2465 3.2725 17.9815 4.81014C18.7173 6.34857 19.0848 8.15414 19.0848 10.2292C19.0848 13.3768 18.2575 15.8714 16.603 17.7116Z" fill="#45FF4C"/>
<path opacity="0.203766" fill-rule="evenodd" clip-rule="evenodd" d="M19.0462 20.2409C18.999 20.3305 18.9403 20.4216 18.8564 20.5159C18.6696 20.7241 18.4599 20.8215 18.1976 20.8215C17.9559 20.8215 17.6448 20.7335 17.2728 20.5591C16.8664 20.3697 16.3791 20.0885 15.8233 19.7207C15.2583 19.3467 14.6301 18.9052 13.9561 18.4062L13.767 18.2664L13.5603 18.3756C12.3511 19.0112 10.8368 19.3342 9.05954 19.3342C7.62002 19.3342 6.31392 19.0953 5.1771 18.6247C4.05171 18.1587 3.09482 17.4775 2.33236 16.6022C1.56609 15.723 0.980523 14.6607 0.591668 13.4468C0.2356 12.335 0.0480349 11.1117 0.0144867 9.81445C0.0106744 9.94488 0 10.0706 0 10.2026C0 11.6499 0.199002 13.0068 0.591668 14.2325C0.980523 15.4465 1.56609 16.5087 2.33236 17.388C3.09482 18.2632 4.05171 18.9445 5.1771 19.4104C6.31392 19.881 7.62002 20.1199 9.05954 20.1199C10.8368 20.1199 12.3511 19.797 13.5603 19.1613L13.767 19.0521L13.9561 19.192C14.6301 19.6909 15.2583 20.1325 15.8233 20.5065C16.3791 20.8742 16.8664 21.1555 17.2728 21.3448C17.6448 21.5192 17.9559 21.6072 18.1976 21.6072C18.4599 21.6072 18.6696 21.5098 18.8564 21.3016C19.0462 21.0887 19.1423 20.8867 19.1423 20.7021C19.1423 20.5127 19.1034 20.3674 19.0462 20.2409ZM15.837 17.2897C17.3292 15.5455 18.0924 13.175 18.0924 10.2293C18.0924 10.1146 18.0794 10.0085 18.0771 9.89538C17.9994 12.713 17.211 14.9915 15.712 16.6588L15.4101 16.9951L15.7783 17.2512C15.7966 17.2646 15.818 17.2772 15.837 17.2897Z" fill="#33404D"/>
</svg>
