<svg width="83" height="19" viewBox="0 0 83 19" fill="none" xmlns="http://www.w3.org/2000/svg">
<path d="M32.484 6.088V11.704H33.48V6.088H32.484ZM26.472 12.232V13.024H32.508V14.116H26.496V16.384H27.468V14.836H33.492V12.232H26.472ZM26.496 16.024V16.816H33.852V16.024H26.496ZM27.48 7.048V7.612C27.48 9.088 26.364 10.42 24.744 10.948L25.212 11.728C27.048 11.116 28.296 9.532 28.296 7.612V7.048H27.48ZM27.684 7.048V7.612C27.684 9.436 28.944 10.936 30.768 11.5L31.236 10.732C29.628 10.24 28.5 8.992 28.5 7.612V7.048H27.684ZM25.008 6.7V7.504H30.948V6.7H25.008ZM35.6271 11.632V12.448H45.4551V11.632H35.6271ZM40.1151 12.136V14.632H41.1111V12.136H40.1151ZM36.8871 6.592V10.408H44.1831V6.592H36.8871ZM43.1991 7.396V9.604H37.8591V7.396H43.1991ZM36.8751 15.88V16.696H44.3631V15.88H36.8751ZM36.8751 13.588V16.168H37.8591V13.588H36.8751ZM49.3541 7.636V9.4C49.3541 11.236 48.0461 13.3 46.4981 14.056L47.0741 14.848C48.7661 13.984 50.1461 11.656 50.1461 9.4V7.636H49.3541ZM49.5341 7.636V9.4C49.5341 11.548 50.8421 13.732 52.5581 14.584L53.1221 13.792C51.5501 13.048 50.3261 11.116 50.3261 9.4V7.636H49.5341ZM46.8821 7.192V8.032H52.7261V7.192H46.8821ZM54.0101 6.088V16.936H55.0181V6.088H54.0101ZM54.7781 10.468V11.308H56.7941V10.468H54.7781ZM63.101 8.86V9.424C63.101 11.188 62.261 13.072 60.785 13.936L61.385 14.692C62.969 13.744 63.869 11.572 63.869 9.424V8.86H63.101ZM63.281 8.86V9.424C63.281 11.512 64.217 13.564 65.813 14.452L66.377 13.708C64.925 12.916 64.049 11.14 64.049 9.424V8.86H63.281ZM61.061 8.104V8.92H66.089V8.104H61.061ZM63.101 6.472V8.716H64.061V6.472H63.101ZM69.185 6.088V16.936H70.133V6.088H69.185ZM67.469 10.456V11.296H69.557V10.456H67.469ZM66.821 6.316V16.396H67.757V6.316H66.821ZM72.388 11.272V12.1H73.084C74.824 12.1 75.856 12.052 77.104 11.812L77.008 10.996C75.796 11.236 74.788 11.272 73.084 11.272H72.388ZM72.388 6.88V11.716H73.348V7.696H76.588V6.88H72.388ZM73.048 9.04V9.82H76.456V9.04H73.048ZM80.116 6.088V12.664H81.064V6.088H80.116ZM78.364 8.92V9.736H80.416V8.92H78.364ZM77.728 6.292V12.604H78.664V6.292H77.728ZM73.792 13.24V14.056H80.08V16.936H81.064V13.24H73.792Z" fill="#08DA11"/>
<path d="M1.00305 7.83913C0.962589 7.37374 1.32943 6.97363 1.79654 6.97363H3.31723C3.75713 6.97363 4.11371 7.33022 4.11371 7.77011V15.3367C4.11371 15.7766 3.75713 16.1331 3.31723 16.1331H2.4545C2.04136 16.1331 1.6968 15.8173 1.66101 15.4057L1.00305 7.83913Z" stroke="#08DA11" stroke-linecap="round" stroke-linejoin="round"/>
<path d="M6.50317 7.52097C6.50317 7.18816 6.71002 6.89028 7.01105 6.74839C7.66755 6.43892 8.78624 5.81623 9.29085 4.97463C9.94122 3.88998 10.0639 1.93027 10.0838 1.48138C10.0866 1.41855 10.0848 1.35563 10.0935 1.29333C10.2013 0.515924 11.7019 1.42409 12.2776 2.38433C12.5901 2.90546 12.6302 3.59015 12.5973 4.12471C12.5621 4.69666 12.3944 5.24918 12.2299 5.79811L11.8794 6.96742H16.2031C16.7312 6.96742 17.1131 7.47211 16.9695 7.98038L14.8309 15.5531C14.734 15.8962 14.4209 16.1331 14.0644 16.1331H7.29965C6.85976 16.1331 6.50317 15.7765 6.50317 15.3366V7.52097Z" stroke="#08DA11" stroke-linecap="round" stroke-linejoin="round"/>
</svg>
